<?xml version="1.0" encoding="UTF-8"?>
<svg width="254px" height="40px" viewBox="0 0 254 40" version="1.1" xmlns="http://www.w3.org/2000/svg" xmlns:xlink="http://www.w3.org/1999/xlink">
    <title>nav_logo_40@2x</title>
    <defs>
        <linearGradient x1="100%" y1="-38.1722982%" x2="55.6201294%" y2="85.7770073%" id="linearGradient-1">
            <stop stop-color="#38D6FF" offset="0%"></stop>
            <stop stop-color="#2701FE" offset="100%"></stop>
        </linearGradient>
        <linearGradient x1="89.7836029%" y1="38.1480628%" x2="31.3523636%" y2="64.934162%" id="linearGradient-2">
            <stop stop-color="#36BCFF" offset="0%"></stop>
            <stop stop-color="#2E48FF" offset="100%"></stop>
        </linearGradient>
        <linearGradient x1="69.2486269%" y1="34.5115927%" x2="30.6619608%" y2="65.4884073%" id="linearGradient-3">
            <stop stop-color="#36BCFF" offset="0%"></stop>
            <stop stop-color="#2EE7FF" offset="100%"></stop>
        </linearGradient>
    </defs>
    <g id="页面-1" stroke="none" stroke-width="1" fill="none" fill-rule="evenodd">
        <g id="帮助中心-首页" transform="translate(-24.000000, -12.000000)">
            <g id="编组-2" transform="translate(24.000000, 12.000000)">
                <g id="logo" transform="translate(0.179127, 5.000000)">
                    <g id="编组-9">
                        <path d="M24.6852392,0 C30.9514251,0 36.107648,4.75231625 36.746334,10.8493748 C33.8320042,11.1531252 30.7090482,13.5541068 25.9456831,20.3979855 C22.2786869,25.6666301 18.0286663,28.8673015 13.1956213,30 L29.3659839,29.999 L12.0256647,30 C6.09154137,30 1.28098389,25.1894425 1.28098389,19.2553191 C1.28098389,13.3211958 6.09154137,8.5106383 12.0256647,8.5106383 L13.1064,8.50975938 C14.6454725,3.57890745 19.2474065,0 24.6852392,0 Z" id="形状结合" fill="url(#linearGradient-1)"></path>
                        <path d="M27.9469047,30 C33.8832472,30 38.6956037,25.1876435 38.6956037,19.2513011 C38.6956037,13.3149586 33.8832472,8.50260215 27.9469047,8.50260215 C24.2082591,8.12691581 20.4888387,10.3481748 14.3137534,19.2203763 C10.1970299,25.1351774 5.42577874,28.7283852 0,30 C16.6547264,30 25.9703613,30 27.9469047,30 Z" id="椭圆形" fill="url(#linearGradient-2)" transform="translate(19.347802, 19.231629) scale(-1, 1) translate(-19.347802, -19.231629) "></path>
                        <path d="M38.0894945,30 C43.3773272,30 47.6639626,25.7133646 47.6639626,20.4255319 C47.6639626,15.1376992 43.3773272,10.8510638 38.0894945,10.8510638 C34.7592735,10.516419 31.4461774,12.4950188 25.9456831,20.3979855 C22.2786869,25.6666301 18.0286663,28.8673015 13.1956213,30 C28.0309188,30 36.3288766,30 38.0894945,30 Z" id="椭圆形" fill="url(#linearGradient-3)" opacity="0.895926339"></path>
                    </g>
                    <path d="M121.815024,12.0608971 L121.885735,12.0901865 L122.037854,12.2837266 L122.008565,13.8021872 L121.815024,13.954306 L107.905873,13.954 L105.922201,22.3544756 L105.917248,22.385762 L105.912735,22.4605575 C105.912735,22.7007232 106.056713,22.9141156 106.26267,23.0060171 L106.354493,23.0376891 L106.426335,23.0514654 L106.508766,23.0565911 L110.674589,23.0853107 L110.773566,23.0281428 L119.003718,23.0281428 C119.042369,23.0281428 119.080928,23.0243831 119.118852,23.016917 C119.354494,22.9705249 119.536055,22.7880375 119.586442,22.5682072 L119.59978,22.4719958 L119.59942,22.3988462 L119.588508,22.3168891 L119.540765,22.0722808 L118.681855,18.773976 L118.778628,18.6487755 L120.446445,18.6696552 L120.600929,18.8154574 L121.422772,21.9730167 L121.566333,22.7010415 C121.589711,22.8196001 121.601484,22.9401543 121.601484,23.060996 C121.601484,23.9339424 120.996087,24.679652 120.158766,24.87359 L120.008671,24.9020002 L119.871272,24.9169116 L119.740917,24.9215517 L115.11628,24.8901956 L115.016483,24.95 L105.820796,24.95 C105.682487,24.95 105.544609,24.9345779 105.409719,24.9040196 C104.558346,24.7111482 103.964823,23.9559531 103.960679,23.0964753 L103.966133,22.9438135 L103.981947,22.8065157 L104.006218,22.6783783 L105.981873,13.953 L102.091599,13.9250167 L101.939481,13.7314766 L101.96877,12.2130159 L102.16231,12.0608971 L121.815024,12.0608971 Z M230.466694,4.75 L230.537405,4.77928932 L230.689523,4.97282947 L230.660234,6.49129011 L230.466694,6.64340889 L222.661873,6.643 L222.661873,15.821 L231.617192,15.8503184 L231.769311,16.0438586 L231.740022,17.5623192 L231.546482,17.714438 L222.661873,17.714 L222.633738,24.7257072 L222.440198,24.877826 L220.921737,24.8485367 L220.769618,24.6550082 L220.767873,17.714 L211.833839,17.6851487 L211.68172,17.4916086 L211.71101,15.9731479 L211.90455,15.8210291 L220.767873,15.821 L220.767873,6.643 L212.873951,6.61411957 L212.721832,6.42057943 L212.751121,4.90211879 L212.944661,4.75 L230.466694,4.75 Z M184.060942,13.764045 C184.933889,13.764045 185.679598,14.3694422 185.873536,15.2067637 L185.901947,15.3568578 L185.916858,15.4942566 L185.921498,15.6246007 L185.921498,17.1310255 C185.921498,18.0039718 185.316101,18.7496814 184.478779,18.9436195 L184.328685,18.9720297 L184.191287,18.9869411 L184.060942,18.9915812 L172.618873,18.96 L172.618873,19.728 L184.127957,19.7594773 C184.912199,19.7594773 185.590127,20.2663996 185.830015,20.9894281 L185.872054,21.136829 L185.901822,21.2894758 L185.91661,21.4217671 L185.921498,21.5530182 L185.921498,22.9985326 C185.921498,23.8714789 185.316101,24.6171885 184.478779,24.8111266 L184.328685,24.8395368 L184.191287,24.8544482 L184.060942,24.8590882 L173.223567,24.8590882 L172.561483,24.8502811 C171.699617,24.8388421 170.96839,24.2385802 170.774736,23.4126348 L170.744824,23.2552139 L170.730176,23.1190385 L170.725619,22.9898893 L170.725619,15.6246007 C170.725619,14.7516543 171.331016,14.0059447 172.168337,13.8120067 L172.318432,13.7835965 L172.45583,13.768685 L172.586174,13.764045 L184.060942,13.764045 Z M95.4803873,12.1263188 C96.6883941,12.1263188 97.737649,13.0110349 97.9599896,14.1788896 L97.9851205,14.339841 L97.9982265,14.4839521 L98.0025843,14.6272254 L98.0025843,22.3262639 C98.0025843,22.5664297 98.146563,22.7798221 98.35252,22.8717236 L98.4443428,22.9033956 L98.5161844,22.9171719 L98.598618,22.9222976 L100.028641,22.9515869 L100.18076,23.145127 L100.151471,24.6848781 L99.9579306,24.8369969 L97.9697311,24.8369969 C97.0967894,24.8369969 96.3510823,24.2316035 96.1571398,23.3942852 L96.1287287,23.2441916 L96.1138164,23.1067933 L96.1091754,22.9764481 L96.1091754,14.6272254 C96.1091754,14.3740726 95.9534159,14.1547636 95.7272427,14.0650975 L95.6392938,14.0377369 L95.5612206,14.0241745 L95.4803873,14.0197277 L91.8069674,14.0197277 C91.5643826,14.0197277 91.354093,14.1653905 91.2485394,14.3943876 L91.2099258,14.4974496 L91.1896396,14.5805334 L91.1779563,14.6584816 L90.6995352,24.713732 L90.504974,24.8582632 L88.9859137,24.8055617 L88.8378941,24.6042017 L89.2850579,14.6159097 C89.3476481,13.384968 90.1913813,12.3882567 91.3389727,12.1701785 L91.5049299,12.1443801 L91.6542081,12.1309134 L91.8069674,12.1263188 L95.4803873,12.1263188 Z M72.2934596,13.5086471 L72.3641703,13.5379364 L72.5162891,13.7314766 L72.5158731,15.425 L78.197751,15.4540761 L78.3498698,15.6476162 L78.3205805,17.1660769 L78.1270388,17.3181956 L72.5158731,17.318 L72.5158731,19.854 L78.197751,19.8824877 L78.3498698,20.0760279 L78.3205805,21.5944885 L78.1270388,21.7466073 L72.5148731,21.746 L72.4869997,24.7028055 L72.2934596,24.8549243 L70.774999,24.8256349 L70.6228802,24.6320948 L70.6228731,21.746 L64.8136756,21.717318 L64.6615568,21.5237778 L64.6908461,20.0053172 L64.8843848,19.8531984 L70.6228731,19.853 L70.6228731,17.317 L64.8136756,17.2889063 L64.6615568,17.0953662 L64.6908461,15.5769055 L64.8843848,15.4247868 L70.6248731,15.424 L70.6521695,13.6607659 L70.8457096,13.5086471 L72.2934596,13.5086471 Z M163.010389,4.7565509 C163.883336,4.7565509 164.629045,5.36194809 164.822983,6.19926955 L164.851394,6.34936366 L164.866305,6.48676248 L164.870945,6.61710657 L164.870945,21.9278375 C164.870945,23.3532144 163.85294,24.5543057 162.477269,24.7913572 L162.303495,24.815914 L162.146023,24.8288861 L161.986811,24.8332624 L160.617383,24.8039731 L160.465264,24.610433 L160.494553,23.0919723 L160.688094,22.9398535 L161.986811,22.9398535 C162.414443,22.9398535 162.796017,22.6498109 162.927382,22.2483818 L162.956852,22.1362737 L162.972139,22.0359366 L162.977536,21.9278375 L162.977536,7.24599343 C162.977536,7.00582768 162.833557,6.79243526 162.6276,6.70053378 L162.535778,6.6688618 L162.463936,6.6550855 L162.381503,6.6499598 L148.647531,6.6499598 C148.407365,6.6499598 148.193972,6.79393849 148.102071,6.99989546 L148.070399,7.09171826 L148.056623,7.16355988 L148.051497,7.24599343 L148.022208,24.7024341 L147.828667,24.8545529 L146.310207,24.8252636 L146.158088,24.6317234 L146.158088,6.61710657 C146.158088,5.74416021 146.763485,4.99845061 147.600807,4.80451259 L147.750901,4.77610237 L147.8883,4.76119093 L148.018644,4.7565509 L163.010389,4.7565509 Z M59.5945306,12.1263188 C60.8108259,12.1263188 61.8536922,13.0020534 62.0744124,14.1749926 L62.0993537,14.3367267 L62.1123732,14.4818664 L62.1167277,14.6272254 L62.1167277,22.3360903 C62.1167277,22.5963701 62.2661321,22.8113747 62.4923358,22.8989963 L62.5806204,22.925723 L62.6605116,22.9391175 L62.7455158,22.943588 L64.5653181,22.9728773 L64.7174369,23.1664175 L64.6881476,24.6848781 L64.4946074,24.8369969 L62.7455158,24.8369969 C61.5292205,24.8369969 60.4863543,23.9612623 60.2656341,22.7883231 L60.2406927,22.626589 L60.2276733,22.4814494 L60.2233188,22.3360903 L60.2233188,14.6272254 C60.2233188,14.3740726 60.0675593,14.1547636 59.8413861,14.0650975 L59.7534371,14.0377369 L59.675364,14.0241745 L59.5945306,14.0197277 L57.8729919,13.9904384 L57.7208731,13.7968982 L57.7501625,12.2784376 L57.9437026,12.1263188 L59.5945306,12.1263188 Z M249.723079,14.5960099 C251.135634,14.5960099 252.346938,15.6361026 252.586254,17.0132537 L252.61105,17.1871022 L252.624125,17.344121 L252.628504,17.5014349 L252.628504,21.8659752 C252.628504,23.2785308 251.588411,24.4898342 250.21126,24.7291502 L250.037411,24.7539466 L249.880393,24.7670216 L249.723079,24.7714002 L237.928175,24.7714002 C236.515619,24.7714002 235.304316,23.7313076 235.065,22.3541565 L235.040203,22.1803079 L235.027128,22.0232892 L235.02275,21.8659752 L235.02275,17.5014349 C235.02275,16.0888794 236.062842,14.877576 237.439993,14.6382599 L237.613842,14.6134636 L237.770861,14.6003886 L237.928175,14.5960099 L249.723079,14.5960099 Z M127.348901,4.7565509 L127.419612,4.78584023 L127.571731,4.97938037 L127.570873,9.041 L129.889303,9.07013197 L130.041422,9.26367211 L130.012133,10.7821328 L129.818558,10.9342515 L127.570873,10.933 L127.542441,24.5947155 L127.348901,24.7468343 L125.830441,24.717545 L125.678322,24.5240049 L125.677873,10.932 L123.38204,10.9049622 L123.229921,10.7114221 L123.259211,9.19296144 L123.452715,9.04084266 L125.678873,9.04 L125.707611,4.90866969 L125.901151,4.7565509 L127.348901,4.7565509 Z M207.17659,4.7565509 C208.049536,4.7565509 208.795246,5.36194809 208.989184,6.19926955 L209.017594,6.34936366 L209.032505,6.48676248 L209.037145,6.61710657 L209.037145,14.0081649 C209.037145,14.8811113 208.431748,15.6268209 207.594427,15.8207589 L207.444333,15.8491691 L207.306934,15.8640806 L207.17659,15.8687206 L203.990873,15.868 L203.990873,17.915 L208.885026,17.9433325 L209.037145,18.1368727 L209.007856,19.6553333 L208.814316,19.8074521 L203.990873,19.807 L203.990873,22.79 L209.289545,22.8188565 L209.441664,23.0123967 L209.412374,24.5521477 L209.218834,24.7042665 L196.778378,24.6749772 L196.626259,24.4814371 L196.655548,22.941686 L196.849088,22.7895672 L202.097873,22.789 L202.097873,19.806 L197.161605,19.7781628 L197.009487,19.5846226 L197.038776,18.066162 L197.232316,17.9140432 L202.097873,17.914 L202.097873,15.868 L198.870042,15.8687206 C198.098528,15.8687206 197.422048,15.3948337 197.143217,14.6994033 L197.092843,14.557438 L197.05361,14.4100136 L197.029038,14.2759078 L197.014127,14.138509 L197.009487,14.0081649 L197.009487,6.61710657 C197.009487,5.74416021 197.614884,4.99845061 198.452205,4.80451259 L198.602299,4.77610237 L198.739698,4.76119093 L198.870042,4.7565509 L207.17659,4.7565509 Z M134.079957,4.84173676 L135.598489,4.89388224 L135.747181,5.09171284 L135.692838,7.48557681 L135.672873,8.032 L139.853229,8.06129263 L140.005348,8.25483277 L140.005348,21.7349571 C140.005348,23.1475127 138.965255,24.3588161 137.588104,24.5981321 L137.414256,24.6229285 L137.257237,24.6360035 L137.099923,24.6403821 L135.496301,24.6110928 L135.344182,24.4175527 L135.373471,22.8778016 L135.567011,22.7256828 L137.099923,22.7256828 C137.546927,22.7256828 137.930558,22.4472867 138.061877,22.0525005 L138.091294,21.9420675 L138.106539,21.842816 L138.111939,21.7349571 L138.111873,9.924 L135.537873,9.924 L135.513112,10.2659864 C135.107204,15.31006 134.259337,19.0596691 132.709426,22.555719 L132.52005,22.9740946 L132.323835,23.3904357 L132.133967,23.7784552 L131.9443,24.1529879 L131.682361,24.591074 L131.442165,24.6374923 L130.093465,23.9186721 L130.047193,23.6750998 C131.969226,20.0213337 133.004033,16.3602231 133.515336,11.3532186 L133.57203,10.7694383 L133.643873,9.923 L130.599499,9.89612288 L130.447381,9.70258274 L130.47667,8.1841221 L130.670184,8.03200331 L133.757873,8.031 L133.88477,4.98867825 L134.009353,4.86947313 L134.079957,4.84173676 Z M87.0248068,12.1886398 L87.0955175,12.2179291 L87.2476362,12.4114692 L87.2183469,13.9299299 L87.0248034,14.0820487 L84.5208731,14.081 L84.5208731,21.332 L87.0283371,20.7691993 L87.2209629,20.92482 L87.5273492,22.4264228 L87.3728822,22.6171068 L80.2714345,24.2224312 L80.0797392,24.0674188 L79.773213,22.5869011 L79.9277767,22.3956943 L82.6278731,21.775 L82.6278731,14.08 L80.0559933,14.0527594 L79.9038746,13.8592192 L79.9331639,12.3407586 L80.126704,12.1886398 L87.0248068,12.1886398 Z M196.103923,5.9062347 L196.174633,5.93552402 L196.326752,6.12906416 L196.297463,7.6475248 L196.103923,7.79964359 L194.132873,7.799 L194.132873,13.422 L196.046891,13.4510496 L196.19901,13.6445897 L196.16972,15.1630503 L195.97618,15.3151691 L194.132873,15.315 L194.132873,20.832 L196.295256,20.3163174 L196.490032,20.4658207 L196.841023,21.9471434 L196.689895,22.1428303 L190.098949,23.7492888 L189.904574,23.5964022 L189.575813,22.0946538 L189.727414,21.9018113 L192.239873,21.283 L192.239873,15.314 L190.306084,15.2858798 L190.153965,15.0923397 L190.183254,13.573879 L190.376794,13.4217602 L192.239873,13.421 L192.239873,7.798 L190.199631,7.77035427 L190.047513,7.57681413 L190.076802,6.05835349 L190.270342,5.9062347 L196.103923,5.9062347 Z M184.183873,21.622 L172.617873,21.622 L172.619028,22.3394101 C172.619028,22.5795759 172.763006,22.7929683 172.968963,22.8848698 L173.060786,22.9165418 L173.132628,22.9303181 L173.215061,22.9354438 L183.958183,22.9354438 C184.03222,22.9354438 184.100845,22.8988019 184.140173,22.8478026 L184.163802,22.8072093 L184.177376,22.7651433 L184.182453,22.7110399 L184.183873,21.622 Z M249.723079,16.4894188 L237.928175,16.4894188 C237.482122,16.4894188 237.093149,16.7822369 236.963453,17.1902288 L236.934661,17.3042213 L236.92098,17.3992735 L236.916158,17.5014349 L236.916158,21.8659752 C236.916158,22.3120275 237.208977,22.7010009 237.616968,22.8306971 L237.730961,22.8594885 L237.826013,22.8731694 L237.928175,22.8779913 L249.723079,22.8779913 C250.169131,22.8779913 250.558104,22.5851732 250.6878,22.1771814 L250.716592,22.0631888 L250.730273,21.9681367 L250.735095,21.8659752 L250.735095,17.5014349 C250.735095,16.9432061 250.281307,16.4894188 249.723079,16.4894188 Z M159.892159,12.1263188 C160.818782,12.1263188 161.593909,12.8060131 161.731319,13.7057197 L161.748232,13.8576292 L161.752714,13.9868745 L161.752714,19.7189162 C161.752714,20.6455395 161.07302,21.420667 160.173313,21.5580763 L160.021404,21.5749897 L159.892159,21.5794719 L151.294096,21.5794719 C150.367473,21.5794719 149.592345,20.8997776 149.454936,20.0000709 L149.438023,19.8481615 L149.43354,19.7189162 L149.43354,13.9868745 C149.43354,13.0602512 150.113235,12.2851237 151.012941,12.1477144 L151.164851,12.130801 L151.294096,12.1263188 L159.892159,12.1263188 Z M142.052267,12.0389369 L142.123055,12.0616998 L142.28912,12.2352409 L143.318265,21.2666771 L143.134823,21.4394738 L141.615728,21.5179865 L141.449662,21.3444454 L140.420518,12.3130092 L140.603959,12.1402124 L142.052267,12.0389369 Z M130.726839,12.1842471 L132.219218,12.5009675 L132.335797,12.7086046 C131.986726,15.4163472 131.515669,17.5596745 130.838708,19.4844396 L130.690463,19.8936699 L130.552795,20.2535124 L130.333543,20.7183763 L130.097199,20.7870211 L128.722565,20.2011524 L128.653861,19.9647676 C129.413547,18.080746 129.937394,16.030596 130.317683,13.4462729 L130.39701,12.8841791 L130.503894,12.3067368 L130.649128,12.2014568 L130.726839,12.1842471 Z M94.4558855,15.3952203 L94.5265962,15.4245096 L94.678715,15.6180498 L94.6494257,20.6019391 L94.4558855,20.7540579 L92.9374249,20.7247685 L92.7853061,20.5312284 L92.8145954,15.5473391 L93.0081356,15.3952203 L94.4558855,15.3952203 Z M151.352873,14.044 L151.350873,19.659 L159.832873,19.661 L159.833873,14.045 L151.352873,14.044 Z M183.723988,15.6787444 L173.215061,15.6787444 C172.974896,15.6787444 172.761503,15.822723 172.669602,16.02868 L172.63793,16.1205028 L172.624153,16.1923444 L172.619028,16.274872 L172.617873,17.046 L183.723988,17.0466462 C183.798025,17.0466462 183.86665,17.0100044 183.905978,16.9590051 L183.929607,16.9184118 L183.943181,16.8763458 L183.948258,16.8223764 L183.948258,15.9030141 C183.948258,15.7791534 183.847849,15.6787444 183.723988,15.6787444 Z M178.816085,9.66972951 L178.886796,9.69901883 L179.038914,9.89261984 L179.037873,11.137 L186.505209,11.1387699 C187.276724,11.1387699 187.953204,11.6126568 188.232035,12.3080873 L188.282409,12.4500525 L188.321642,12.5974769 L188.346214,12.7315827 L188.361125,12.8689815 L188.365765,12.9993256 L188.336476,14.860071 L188.142936,15.0121898 L186.624475,14.9829005 L186.472356,14.7893603 L186.472356,13.6495029 C186.472356,13.4093506 186.328384,13.1959651 186.122432,13.1040565 L186.03061,13.0723805 L185.958769,13.0586002 L185.876355,13.0534692 L170.756834,13.0534692 C170.516669,13.0534692 170.303276,13.1974479 170.211375,13.4034049 L170.179703,13.4952277 L170.165926,13.5670693 L170.160801,13.6495029 L170.131511,14.860071 L169.937971,15.0121898 L168.419511,14.9829005 L168.267392,14.7893603 L168.267392,12.9993256 C168.267392,12.1263792 168.872789,11.3806696 169.71011,11.1867316 L169.860205,11.1583214 L169.997603,11.1434099 L170.127936,11.1387699 L177.145873,11.137 L177.174795,9.8218483 L177.368335,9.66972951 L178.816085,9.66972951 Z M228.128403,7.37357428 L229.597067,7.71558717 L229.704605,7.93907989 C229.263218,9.87802617 228.680869,11.62861 227.902702,13.3590829 L227.635985,13.9353932 L227.404929,14.4102322 L227.136685,14.8744944 L226.894069,14.9218187 L225.567272,14.2033563 L225.520915,13.9616485 C226.391026,12.2758088 227.051007,10.5870753 227.566445,8.71457091 L227.732995,8.08334833 L227.908996,7.47905125 L228.054061,7.3869701 L228.128403,7.37357428 Z M215.22966,7.27645973 L215.306456,7.27919449 L215.517059,7.40825395 L217.962493,14.1483326 L217.834542,14.3576511 L216.395157,14.8658869 L216.184554,14.7368275 L213.73912,7.99674878 L213.867071,7.7874303 L215.22966,7.27645973 Z M77.5521984,4.7565509 L77.6229091,4.78584023 L77.7750279,4.97938037 L77.7667543,6.43531042 L77.7043341,6.55829426 L77.108081,7.11226586 L76.8183194,7.3766504 L76.2582852,7.8776966 C75.3636936,8.66688018 74.5661916,9.31444458 73.8641267,9.82148443 L73.6053227,10.0050394 L73.5198731,10.062 L78.4055016,12.5677574 L78.452109,12.8113256 L77.7127487,14.1588264 L77.4729569,14.2053897 L71.7768731,11.325 L71.4618686,11.5398746 C70.511442,12.1669603 69.4946479,12.7350452 68.4042339,13.2488404 L67.8528582,13.5012357 L67.2890111,13.7447136 L66.7173999,13.9774366 L66.1929963,14.1792665 L65.6071499,14.3611061 L65.3971936,14.2269986 L64.9336182,12.7672805 L65.0659511,12.5614705 C66.536668,12.0442953 67.8308932,11.4839957 68.9808855,10.8648718 L69.4054347,10.6299123 L69.7790097,10.4119849 L69.8588731,10.362 L65.9257968,8.33417784 L65.8793249,8.09072162 L66.6186402,6.74323518 L66.8582897,6.69656294 L71.6708731,9.124 L72.53281,8.46792248 L73.1222539,8.00211643 L73.3514855,7.81622768 L73.7712891,7.46574523 L74.1437974,7.13993607 C74.3199277,6.98163966 74.4776321,6.83299143 74.6163185,6.69452018 L74.6898731,6.618 L65.6871142,6.62078825 L65.5344649,6.42713033 L65.5637542,4.90866969 L65.7572943,4.7565509 L77.5521984,4.7565509 Z M207.142873,11.333 L203.990873,11.333 L203.990873,13.975 L206.547703,13.9753117 C206.787869,13.9753117 207.001261,13.831333 207.093162,13.625376 L207.124834,13.5335532 L207.138611,13.4617116 L207.143736,13.3792781 L207.142873,11.333 Z M202.097873,11.333 L198.902873,11.333 L198.902873,13.3792781 C198.902873,13.6194438 199.046874,13.8328362 199.252831,13.9247377 L199.344654,13.9564097 L199.416496,13.970186 L199.498929,13.9753117 L202.097873,13.975 L202.097873,11.333 Z M238.402121,4.78510199 L240.347365,4.84426579 L240.432111,4.99211132 L236.981811,11.3165383 C236.966856,11.3439511 236.95902,11.3746786 236.95902,11.4059054 C236.95902,11.4628082 236.985101,11.5161843 237.021312,11.5493446 L237.060309,11.5751483 L237.092695,11.5868733 L237.145622,11.5925074 L250.021807,11.5925074 C250.06046,11.5925074 250.099022,11.5887476 250.136948,11.581281 C250.372605,11.5348859 250.554173,11.3523893 250.60455,11.1325559 L250.617884,11.0363437 L250.617519,10.9631946 L250.606598,10.8812173 L250.558861,10.6366455 L249.699951,7.3383407 L249.796724,7.21314021 L251.464541,7.23401989 L251.619025,7.37982212 L252.440868,10.5373814 L252.584429,11.2654061 C252.607808,11.3839647 252.61958,11.504519 252.61958,11.6253607 C252.61958,12.498307 252.014183,13.2440166 251.176862,13.4379547 L251.026768,13.4663649 L250.889369,13.4812763 L250.759025,13.4859163 L236.726851,13.4859163 C236.421857,13.4859163 236.12154,13.4109383 235.852337,13.2675827 C235.0885,12.8608252 234.714242,11.9872932 234.925329,11.1622996 L234.971816,11.0083079 L235.024967,10.8737134 L235.084629,10.7508471 L238.236764,4.86358954 L238.348914,4.79855016 L238.402121,4.78510199 Z M91.3196399,4.7565509 L91.3903506,4.78584023 L91.5424693,4.97941031 L91.5408731,7.267 L97.9920249,7.29662567 L98.1441437,7.49016581 L98.1148543,8.923086 L97.921292,9.07520478 L95.3488731,9.074 L95.3225312,10.7772196 L95.128991,10.9293384 L93.6105304,10.900049 L93.4584116,10.7065502 L93.4568731,9.073 L89.6619725,9.04591546 L89.5098537,8.85237532 L89.539143,4.90866969 L89.7326832,4.7565509 L91.3196399,4.7565509 Z M81.4932827,4.7565509 L81.5639933,4.78584023 L81.7161121,4.97941031 L81.7148731,7.267 L88.9845308,7.29662567 L89.1366495,7.49016581 L89.1073602,8.923086 L88.9138017,9.07520478 L85.7988731,9.074 L85.7729497,10.7772196 L85.5794095,10.9293384 L84.0396585,10.900049 L83.8875397,10.7065502 L83.8858731,9.073 L79.8356153,9.04591546 L79.6834965,8.85237532 L79.7127858,4.90866969 L79.906326,4.7565509 L81.4932827,4.7565509 Z M181.394581,4.75 L181.465292,4.77928932 L181.61741,4.97285941 L181.615873,7.26 L188.066966,7.29007476 L188.219085,7.4836149 L188.189795,8.91653509 L187.996233,9.06865387 L185.423873,9.068 L185.397472,10.7706687 L185.203932,10.9227875 L183.685472,10.8934981 L183.533353,10.6999993 L183.531873,9.067 L179.736914,9.03936456 L179.584795,8.84582441 L179.614084,4.90211879 L179.807624,4.75 L181.394581,4.75 Z M170.749361,4.75 L170.820071,4.77928932 L170.97219,4.97285941 L170.970873,7.26 L178.240609,7.29007476 L178.392728,7.4836149 L178.363438,8.91653509 L178.16988,9.06865388 L175.054873,9.068 L175.029028,10.7706687 L174.835488,10.9227875 L173.295736,10.8934981 L173.143618,10.6999993 L173.142873,9.067 L169.091693,9.03936456 L168.939575,8.84582441 L168.968864,4.90211879 L169.162404,4.75 L170.749361,4.75 Z M161.667454,8.66744108 L161.738165,8.6967304 L161.890283,8.89027054 L161.860994,10.4300216 L161.667454,10.5821404 L149.312159,10.5528511 L149.16004,10.3593109 L149.18933,8.81955986 L149.38287,8.66744108 L161.667454,8.66744108 Z M202.097873,6.671 L199.498929,6.67125024 C199.258763,6.67125024 199.045371,6.81522893 198.95347,7.0211859 L198.921798,7.1130087 L198.908021,7.18485033 L198.902873,7.26728387 L198.902873,9.44 L202.097873,9.44 L202.097873,6.671 Z M203.990873,6.671 L203.990873,9.44 L207.142873,9.44 L207.143736,7.26728387 C207.143736,6.99943776 206.96604,6.76978866 206.722857,6.6964326 L206.628812,6.67648098 L206.541503,6.67105789 L203.990873,6.671 Z M61.8480419,4.7565509 L61.9187526,4.78584023 L62.0708713,4.97938037 L62.041582,8.9036608 L61.8480419,9.05577959 L60.3295812,9.02649027 L60.1774624,8.83295012 L60.2067518,4.90866969 L60.4002919,4.7565509 L61.8480419,4.7565509 Z M119.358435,5.57541401 L119.429146,5.60470333 L119.581265,5.79824347 L119.551975,7.31670411 L119.358435,7.4688229 L104.548189,7.43953358 L104.39607,7.24599343 L104.425359,5.72753279 L104.618899,5.57541401 L119.358435,5.57541401 Z" id="形状结合" fill="#0F0E2F" fill-rule="nonzero"></path>
                </g>
            </g>
        </g>
    </g>
</svg>