<?xml version="1.0" encoding="UTF-8"?>
<svg width="24px" height="24px" viewBox="0 0 24 24" version="1.1" xmlns="http://www.w3.org/2000/svg" xmlns:xlink="http://www.w3.org/1999/xlink">
    <title>服务热线</title>
    <g id="页面-1" stroke="none" stroke-width="1" fill="none" fill-rule="evenodd">
        <g id="帮助中心-首页" transform="translate(-1849.000000, -1315.000000)" fill="#00C1DC" fill-rule="nonzero">
            <g id="编组-26" transform="translate(1832.000000, 1299.000000)">
                <g id="编组-24" transform="translate(8.000000, 16.000000)">
                    <g id="服务热线" transform="translate(9.000000, 0.000000)">
                        <g id="编组" transform="translate(2.249433, 2.249999)">
                            <path d="M5.19768424,1.55727332 C5.83345287,1.55727332 6.41919817,1.90205395 6.72771131,2.45786759 L7.95097546,4.66129807 C8.23122844,5.16615593 8.24437914,5.776782 7.98615464,6.29331851 L6.93156661,8.40127332 L6.93937175,8.42827062 C6.96160273,8.50245668 6.98907102,8.58732167 7.02223491,8.68138479 L7.07630973,8.82919295 C7.27448012,9.35236038 7.55011429,9.87616234 7.91337698,10.3622227 C8.07387238,10.5769721 8.24855225,10.7799161 8.43796433,10.9693282 C8.62508185,11.1564458 8.82527396,11.3290536 9.03689178,11.4876973 C9.52322082,11.852284 10.0472302,12.1281842 10.5705713,12.3258757 C10.7249107,12.3841773 10.8601978,12.4291061 10.9714289,12.4622459 L10.9985666,12.4692733 L13.1076786,11.4154606 C13.5728496,11.1828358 14.1143714,11.170401 14.5862216,11.3749433 L14.7407242,11.4511558 L16.9503594,12.6796476 C17.5056533,12.9883581 17.8500342,13.5738154 17.8500342,14.2091583 L17.8500342,16.7459083 C17.8500342,18.5533958 16.144855,19.8449551 14.4362531,19.2683953 C10.7245292,18.0159958 7.43667891,16.3320072 5.25600952,14.1512938 C3.07529347,11.9706218 1.39132693,8.6828246 0.138876236,4.9710366 C-0.437631538,3.26242339 0.85391876,1.55727332 2.66137424,1.55727332 L5.19768424,1.55727332 Z M5.19768424,3.05727332 L2.66137424,3.05727332 C1.8610145,3.05727332 1.31808728,3.7740649 1.56014956,4.49147207 C2.74494867,8.00276649 4.33689147,11.1108954 6.31666969,13.0906336 C8.29640405,15.070408 11.4045801,16.66237 14.9158334,17.8471273 C15.6332398,18.0892128 16.3500342,17.5462889 16.3500342,16.7459083 L16.3500342,14.2091583 C16.3500342,14.1184167 16.3008288,14.0347661 16.2214943,13.9906608 L14.0118496,12.7621637 C13.9396945,12.7220484 13.852411,12.7201392 13.7785387,12.7570816 L11.4220887,13.9352816 C11.2747328,14.008958 11.1072174,14.0320652 10.945418,14.0010341 C10.2181448,13.8615519 9.1792167,13.469098 8.13714461,12.6878869 C7.86972919,12.4874133 7.61571695,12.2684012 7.37730416,12.0299884 C7.13603106,11.7887153 6.91451237,11.5313537 6.71185687,11.2601923 C5.93453781,10.2201076 5.54184192,9.1833952 5.40073089,8.45790265 C5.36914741,8.29552287 5.39213452,8.12725678 5.46611385,7.97929812 L6.64449112,5.62254358 C6.68140385,5.54870561 6.6795243,5.46143234 6.63950717,5.38934404 L5.41622999,3.18589008 C5.37217087,3.10651369 5.28851676,3.05727332 5.19768424,3.05727332 Z M14.2407029,0.21825587 C15.5019295,0.534514829 16.6585134,1.18438277 17.5976143,2.12347823 C18.53675,3.06261386 19.1866423,4.21922251 19.5028602,5.48043369 C19.735799,6.40935084 19.7827257,7.37693813 19.641537,8.32404195 C19.5804633,8.73372827 19.1988369,9.01633468 18.7891506,8.95526103 C18.3794643,8.89418737 18.0968579,8.51256101 18.1579315,8.10287468 C18.2700327,7.35089224 18.2327645,6.58245577 18.0479017,5.84525677 C17.797262,4.84559926 17.2827606,3.92994487 16.5369557,3.18413994 C15.7911823,2.43837084 14.8755388,1.92388388 13.8758678,1.67321132 C13.1386931,1.48836342 12.3702008,1.45109365 11.6182093,1.5631873 C11.2085223,1.62425623 10.8268992,1.34164542 10.7658303,0.93195839 C10.7047613,0.522271362 10.9873721,0.140648258 11.3970592,0.0795793304 C12.3441602,-0.0615978134 13.3117915,-0.0146703497 14.2407029,0.21825587 Z M14.7893643,4.71557823 C15.6402411,5.56645504 16.0205492,6.75517062 15.8465374,7.92248869 C15.7854656,8.33217528 15.4038405,8.61478337 14.9941539,8.55371151 C14.5844673,8.49263966 14.3018592,8.11101454 14.362931,7.70132794 C14.4675875,6.99926425 14.239827,6.28736122 13.7287231,5.77625736 C13.2175274,5.26509819 12.5056028,5.03731059 11.8036206,5.14196062 C11.3939345,5.20303577 11.0123071,4.92043075 10.9512319,4.51074464 C10.8901568,4.10105854 11.1727618,3.71943115 11.5824479,3.65835601 C12.7496947,3.48434531 13.9384133,3.86468803 14.7893643,4.71557823 Z" id="形状结合"></path>
                        </g>
                    </g>
                </g>
            </g>
        </g>
    </g>
</svg>