<?xml version="1.0" encoding="UTF-8"?>
<svg width="24px" height="24px" viewBox="0 0 24 24" version="1.1" xmlns="http://www.w3.org/2000/svg" xmlns:xlink="http://www.w3.org/1999/xlink">
    <g id="页面-1" stroke="none" stroke-width="1" fill="none" fill-rule="evenodd">
        <g id="帮助中心-首页" transform="translate(-1848.000000, -1461.000000)" fill="#1E2426" fill-rule="nonzero">
            <g id="编组-27" transform="translate(1832.000000, 1455.000000)">
                <g id="编组" transform="translate(16.000000, 6.000000)">
                    <path d="M11.4696699,11.7196699 C11.7625631,11.4267767 12.2374369,11.4267767 12.5303301,11.7196699 L18.5303301,17.7196699 C18.8232233,18.0125631 18.8232233,18.4874369 18.5303301,18.7803301 C18.2374369,19.0732233 17.7625631,19.0732233 17.4696699,18.7803301 L12,13.311 L6.53033009,18.7803301 C6.26406352,19.0465966 5.84739984,19.0708027 5.55378835,18.8529482 L5.46966991,18.7803301 C5.1767767,18.4874369 5.1767767,18.0125631 5.46966991,17.7196699 L11.4696699,11.7196699 Z M18,7.5 C18.4142136,7.5 18.75,7.83578644 18.75,8.25 C18.75,8.66421356 18.4142136,9 18,9 L6,9 C5.58578644,9 5.25,8.66421356 5.25,8.25 C5.25,7.83578644 5.58578644,7.5 6,7.5 L18,7.5 Z" id="形状结合"></path>
                </g>
            </g>
        </g>
    </g>
</svg>